<svg width="26" height="24" viewBox="0 0 26 24" fill="none" xmlns="http://www.w3.org/2000/svg">
<path id="Icon" d="M12.7512 4.40304L12.8251 4.32935L12.938 4.44203L13.6391 3.61264C14.7835 2.25861 16.494 1.40039 18.4071 1.40039C21.8514 1.40039 24.6393 4.18491 24.6393 7.6145C24.6393 9.57891 23.7262 11.3307 22.2952 12.4713C21.4057 13.1804 18.8261 15.7574 16.5373 18.0815C15.3772 19.2595 14.2693 20.3958 13.4517 21.2374C13.212 21.4841 12.9973 21.7055 12.8134 21.8952L3.32034 12.3964L3.29196 12.368L3.26139 12.342C1.92085 11.2004 1.07422 9.50626 1.07422 7.6145C1.07422 4.18491 3.86212 1.40039 7.30645 1.40039C9.20562 1.40039 10.9051 2.24613 12.0494 3.58308L12.7512 4.40304Z" stroke="#333333" stroke-width="2"/>
</svg>
